<svg version="1.1" xmlns="http://www.w3.org/2000/svg" viewBox="0 0 1372.284199645996 1689.62890625" width="1372.284199645996" height="1689.62890625">
  <!-- svg-source:excalidraw -->
  
  <defs>
    <style class="style-fonts">
      @font-face {
        font-family: "Virgil";
        src: url("https://unpkg.com/@excalidraw/excalidraw@undefined/dist/excalidraw-assets/Virgil.woff2");
      }
      @font-face {
        font-family: "Cascadia";
        src: url("https://unpkg.com/@excalidraw/excalidraw@undefined/dist/excalidraw-assets/Cascadia.woff2");
      }
      @font-face {
        font-family: "Assistant";
        src: url("https://unpkg.com/@excalidraw/excalidraw@undefined/dist/excalidraw-assets/Assistant-Regular.woff2");
      }
    </style>
    
  </defs>
  <rect x="0" y="0" width="1372.284199645996" height="1689.62890625" fill="#ffffff"></rect><g stroke-linecap="round" transform="translate(611.32421875 24.546875) rotate(0 84.6484375 26.25)"><path d="M13.13 0 C45.78 0.07, 76.53 0.54, 156.17 0 C166.15 -0.18, 167.74 3.69, 169.3 13.13 C167.82 15.88, 170.13 26.52, 169.3 39.38 C167.73 46, 168.31 53.34, 156.17 52.5 C118.77 55.63, 77.36 53.32, 13.13 52.5 C7.48 48.99, -3.15 50.92, 0 39.38 C3.16 28.25, 1.05 21.51, 0 13.13 C-1.06 6.26, 4.76 -1.07, 13.13 0" stroke="none" stroke-width="0" fill="#81C784"></path><path d="M13.13 0 C62.29 -2.3, 113.19 -0.29, 156.17 0 M13.13 0 C50.5 -1.64, 87.85 -1.23, 156.17 0 M156.17 0 C163.21 1.7, 169.05 2.47, 169.3 13.13 M156.17 0 C164.28 1.94, 169.16 3.36, 169.3 13.13 M169.3 13.13 C167.92 21.04, 171.3 31.88, 169.3 39.38 M169.3 13.13 C168.44 21.66, 170.14 31.7, 169.3 39.38 M169.3 39.38 C169.95 47.14, 163.47 50.83, 156.17 52.5 M169.3 39.38 C167.28 50.07, 167.06 53.06, 156.17 52.5 M156.17 52.5 C104.8 53.74, 49.99 49.99, 13.13 52.5 M156.17 52.5 C116.72 51.77, 79.14 53.09, 13.13 52.5 M13.13 52.5 C2.63 52.62, -0.09 47.75, 0 39.38 M13.13 52.5 C5.77 53.11, -1.34 47.01, 0 39.38 M0 39.38 C1.7 32.82, -1.51 26.9, 0 13.13 M0 39.38 C0.09 31.09, 1.01 21.75, 0 13.13 M0 13.13 C1.92 5.12, 3.7 0.64, 13.13 0 M0 13.13 C-1.33 2.62, 5.06 1.51, 13.13 0" stroke="#1e1e1e" stroke-width="2" fill="none"></path></g><g stroke-linecap="round" transform="translate(603.52734375 127.046875) rotate(0 92.4453125 26.25)"><path d="M13.13 0 C49.79 1.35, 87.93 -0.91, 171.77 0 C180.33 -1.55, 184.21 0.89, 184.89 13.13 C181.87 22.47, 187.18 28.88, 184.89 39.38 C182.76 51.51, 181.35 51.56, 171.77 52.5 C116.02 53.4, 56.76 57, 13.13 52.5 C0.87 49.35, 2.79 48.34, 0 39.38 C-3.15 32.86, -1.86 23.32, 0 13.13 C1.89 4.76, 3.31 3.5, 13.13 0" stroke="none" stroke-width="0" fill="#FFB74D"></path><path d="M13.13 0 C53.33 0.21, 96.99 0.19, 171.77 0 M13.13 0 C49.09 0.1, 86.22 -1.33, 171.77 0 M171.77 0 C182.21 -0.25, 182.99 3.82, 184.89 13.13 M171.77 0 C182.46 -0.14, 183.87 5.1, 184.89 13.13 M184.89 13.13 C184.2 24.17, 186.34 32.57, 184.89 39.38 M184.89 13.13 C184.17 21.03, 184.92 27.4, 184.89 39.38 M184.89 39.38 C183.91 46.67, 178.85 50.74, 171.77 52.5 M184.89 39.38 C186.84 50.26, 181.08 54.07, 171.77 52.5 M171.77 52.5 C139.82 52.75, 102.19 52.92, 13.13 52.5 M171.77 52.5 C126.91 50.86, 83.9 50.07, 13.13 52.5 M13.13 52.5 C4.49 52.41, -0.38 49.34, 0 39.38 M13.13 52.5 C4.99 51.16, -1.11 45.92, 0 39.38 M0 39.38 C-1.11 28.01, -1.68 20.28, 0 13.13 M0 39.38 C1.15 34.73, 1.06 29.52, 0 13.13 M0 13.13 C0.75 3.7, 5.02 -1.16, 13.13 0 M0 13.13 C-1.75 5.06, 5.88 -2.08, 13.13 0" stroke="#1e1e1e" stroke-width="2" fill="none"></path></g><g stroke-linecap="round" transform="translate(576.91015625 267.046875) rotate(0 119.0625 26.25)"><path d="M13.13 0 C71 0.47, 123.82 0.76, 225 0 C232.2 -0.69, 234.64 5.45, 238.13 13.13 C238.6 21.3, 236.35 21.9, 238.13 39.38 C241.51 48.96, 232.81 54.62, 225 52.5 C145.23 52.67, 69.06 50.54, 13.13 52.5 C1.23 55.29, 0.22 47.61, 0 39.38 C0.57 29.35, -1.46 24.81, 0 13.13 C0.38 3.31, 7.88 3.56, 13.13 0" stroke="none" stroke-width="0" fill="#FFF176"></path><path d="M13.13 0 C88.64 1.84, 164.82 0.14, 225 0 M13.13 0 C90.08 1.11, 165.28 2.17, 225 0 M225 0 C233.5 -1.9, 237.57 6.07, 238.13 13.13 M225 0 C233.61 -1.02, 238.85 5.52, 238.13 13.13 M238.13 13.13 C239.8 23.33, 239.01 30.15, 238.13 39.38 M238.13 13.13 C238.85 21.38, 238.25 29.17, 238.13 39.38 M238.13 39.38 C236.67 46.46, 231.99 54.2, 225 52.5 M238.13 39.38 C240.26 48.69, 235.32 50.51, 225 52.5 M225 52.5 C170.8 52.68, 117.45 53.93, 13.13 52.5 M225 52.5 C164.66 52.26, 103.7 51.6, 13.13 52.5 M13.13 52.5 C4.28 52.12, 1.22 48.66, 0 39.38 M13.13 52.5 C3.03 51.39, -2.2 50.05, 0 39.38 M0 39.38 C-1.54 30.51, 0.79 23.28, 0 13.13 M0 39.38 C0.8 34.3, 1 27.87, 0 13.13 M0 13.13 C-0.67 5.02, 3.22 -1.52, 13.13 0 M0 13.13 C0.68 5.88, 2.29 -1.44, 13.13 0" stroke="#1e1e1e" stroke-width="2" fill="none"></path></g><g stroke-linecap="round" transform="translate(555.48828125 369.546875) rotate(0 140.484375 26.25)"><path d="M13.13 0 C108.19 -2.6, 203.95 -4.85, 267.84 0 C275.91 -3.48, 282.04 1.05, 280.97 13.13 C283.35 18.25, 278.5 29.9, 280.97 39.38 C281.81 47.18, 278.72 55.18, 267.84 52.5 C178.11 54.51, 87.32 49.45, 13.13 52.5 C7.17 52.72, -0.52 48.6, 0 39.38 C-1.39 28.19, 2.29 19.5, 0 13.13 C-1.07 7.88, 7.94 2.1, 13.13 0" stroke="none" stroke-width="0" fill="#E57373"></path><path d="M13.13 0 C73.87 0.16, 132.59 1.8, 267.84 0 M13.13 0 C96.77 -1.87, 181.7 -1.28, 267.84 0 M267.84 0 C274.69 -0.56, 282.66 4.25, 280.97 13.13 M267.84 0 C275.58 0.73, 282.11 5.24, 280.97 13.13 M280.97 13.13 C282.22 20.1, 280.18 25.2, 280.97 39.38 M280.97 13.13 C280.76 19.31, 280.28 24.12, 280.97 39.38 M280.97 39.38 C279.3 46.37, 278.29 54.36, 267.84 52.5 M280.97 39.38 C281.53 49.7, 274.6 51.41, 267.84 52.5 M267.84 52.5 C173.19 51.18, 81.17 51.43, 13.13 52.5 M267.84 52.5 C217.11 51.63, 165.12 52.3, 13.13 52.5 M13.13 52.5 C4 53.72, 0.53 46.96, 0 39.38 M13.13 52.5 C3.26 50.3, 1.92 47.45, 0 39.38 M0 39.38 C-1.6 30.03, -1.72 17.12, 0 13.13 M0 39.38 C0.61 32.86, 0.12 24.09, 0 13.13 M0 13.13 C0.64 3.22, 2.85 0.59, 13.13 0 M0 13.13 C1.51 2.29, 2.94 -0.95, 13.13 0" stroke="#1e1e1e" stroke-width="2" fill="none"></path></g><g stroke-linecap="round" transform="translate(628.36328125 509.546875) rotate(0 67.609375 26.25)"><path d="M13.13 0 C44.03 0.1, 70.93 -0.4, 122.09 0 C127.36 1.07, 131.89 2.75, 135.22 13.13 C133.75 16.99, 138.7 25.95, 135.22 39.38 C134.27 50.25, 133.52 54.26, 122.09 52.5 C88.84 48.4, 46.22 54.7, 13.13 52.5 C4.59 51.98, 0.48 51.22, 0 39.38 C-1.19 35.64, 0.25 27.07, 0 13.13 C3.5 7.94, 6.48 0.27, 13.13 0" stroke="none" stroke-width="0" fill="#64B5F6"></path><path d="M13.13 0 C37.13 -1.68, 63.99 0.28, 122.09 0 M13.13 0 C36.62 1.24, 61.7 -0.56, 122.09 0 M122.09 0 C130.28 1.69, 135.1 3.49, 135.22 13.13 M122.09 0 C131.57 1.14, 136.08 2.64, 135.22 13.13 M135.22 13.13 C136.55 19.28, 135.76 25.27, 135.22 39.38 M135.22 13.13 C135.79 18.52, 134.74 24.07, 135.22 39.38 M135.22 39.38 C133.46 49.82, 132.7 52.99, 122.09 52.5 M135.22 39.38 C136.79 46.14, 129.75 54.01, 122.09 52.5 M122.09 52.5 C78.31 51.09, 35.47 49.54, 13.13 52.5 M122.09 52.5 C94.12 53.44, 67.84 53.19, 13.13 52.5 M13.13 52.5 C5.59 53.03, -1.17 47.16, 0 39.38 M13.13 52.5 C2.17 54.42, -0.67 50.33, 0 39.38 M0 39.38 C1.21 31.18, -1.31 26.45, 0 13.13 M0 39.38 C0.76 29.36, -0.54 18.91, 0 13.13 M0 13.13 C-1.16 2.85, 4.97 1.31, 13.13 0 M0 13.13 C-2.08 2.94, 3.42 1.72, 13.13 0" stroke="#1e1e1e" stroke-width="2" fill="none"></path></g><g stroke-linecap="round" transform="translate(368.203125 649.546875) rotate(0 133.7109375 26.25)"><path d="M13.13 0 C108.7 -2.52, 204.01 -4.13, 254.3 0 C264.12 -3.33, 265.8 1.79, 267.42 13.13 C265.65 24.89, 268.62 28.94, 267.42 39.38 C269.55 50.81, 264.8 53.71, 254.3 52.5 C182.32 53, 118.5 55.8, 13.13 52.5 C3.86 52.98, 3.09 45.03, 0 39.38 C2.12 31.17, -0.83 25.7, 0 13.13 C3.56 6.48, 4.65 -2.86, 13.13 0" stroke="none" stroke-width="0" fill="#7986CB"></path><path d="M13.13 0 C74.78 1.83, 139.21 -0.45, 254.3 0 M13.13 0 C99.98 1.61, 184.63 1.49, 254.3 0 M254.3 0 C264.74 -0.12, 266.54 5.01, 267.42 13.13 M254.3 0 C264.19 0.86, 265.68 3.47, 267.42 13.13 M267.42 13.13 C266.91 23.75, 266.07 32.27, 267.42 39.38 M267.42 13.13 C266.93 22.71, 266.58 32.88, 267.42 39.38 M267.42 39.38 C269.12 49.98, 263.54 53.87, 254.3 52.5 M267.42 39.38 C265.43 47.03, 264.56 54.71, 254.3 52.5 M254.3 52.5 C191.17 51.62, 127.09 51.03, 13.13 52.5 M254.3 52.5 C183.96 50.71, 113.36 51.26, 13.13 52.5 M13.13 52.5 C4.91 51.33, -0.97 46.21, 0 39.38 M13.13 52.5 C6.3 51.83, 2.2 46.76, 0 39.38 M0 39.38 C-1.65 31.72, -0.07 28.93, 0 13.13 M0 39.38 C0.15 29.16, 0.09 19.03, 0 13.13 M0 13.13 C-1.52 4.97, 5.69 -1.81, 13.13 0 M0 13.13 C-1.44 3.42, 6.1 -0.64, 13.13 0" stroke="#1e1e1e" stroke-width="2" fill="none"></path></g><g stroke-linecap="round" transform="translate(420.546875 752.046875) rotate(0 81.3671875 26.25)"><path d="M13.13 0 C50.54 -0.56, 87.58 1.2, 149.61 0 C155.03 -1.62, 160.15 5.07, 162.73 13.13 C165.92 23.83, 161.58 34.97, 162.73 39.38 C165.42 49.88, 159.57 52.01, 149.61 52.5 C109.67 52.9, 76.24 49.59, 13.13 52.5 C4.85 55.59, -3.09 49.1, 0 39.38 C0.52 31.74, 3.64 29.81, 0 13.13 C2.1 4.65, 1.51 2.44, 13.13 0" stroke="none" stroke-width="0" fill="#BA68C8"></path><path d="M13.13 0 C59.14 1.53, 101.18 2.08, 149.61 0 M13.13 0 C49 -2.11, 84.84 -0.31, 149.61 0 M149.61 0 C158.24 -0.88, 163.37 5.37, 162.73 13.13 M149.61 0 C159.22 -1.74, 161.82 6.52, 162.73 13.13 M162.73 13.13 C163.17 21.24, 161.36 34.28, 162.73 39.38 M162.73 13.13 C162.09 20.14, 161.94 29.67, 162.73 39.38 M162.73 39.38 C164.59 48.62, 159.73 50.77, 149.61 52.5 M162.73 39.38 C161.64 49.64, 160.57 51.59, 149.61 52.5 M149.61 52.5 C120.85 50.25, 91.7 52.06, 13.13 52.5 M149.61 52.5 C97.56 52.39, 46.21 52.84, 13.13 52.5 M13.13 52.5 C3.21 51.53, -1.92 49.8, 0 39.38 M13.13 52.5 C3.7 54.7, -1.37 46.64, 0 39.38 M0 39.38 C-1.61 33.5, 1.78 29.76, 0 13.13 M0 39.38 C-0.59 29.55, -0.83 18.33, 0 13.13 M0 13.13 C0.59 5.69, 2.56 -1.25, 13.13 0 M0 13.13 C-0.95 6.1, 3.74 2.23, 13.13 0" stroke="#1e1e1e" stroke-width="2" fill="none"></path></g><g stroke-linecap="round" transform="translate(253.85546875 854.546875) rotate(0 126.875 26.25)"><path d="M13.13 0 C88.55 -1.46, 166.07 -1.33, 240.63 0 C247.75 -2.58, 254.44 7.1, 253.75 13.13 C254.31 18.91, 255.6 29.27, 253.75 39.38 C255.51 49.34, 248.88 51.4, 240.63 52.5 C155.12 49.63, 64.4 49.85, 13.13 52.5 C7.47 49.41, 0.98 46.33, 0 39.38 C-1.32 35.78, 3.32 27.27, 0 13.13 C0.27 1.51, 6.81 -2.45, 13.13 0" stroke="none" stroke-width="0" fill="#81C784"></path><path d="M13.13 0 C72.59 -2.49, 132.03 -1.8, 240.63 0 M13.13 0 C61.06 0, 111.35 0.19, 240.63 0 M240.63 0 C248.49 0.63, 254.74 5.12, 253.75 13.13 M240.63 0 C247.64 -0.91, 255.9 5.93, 253.75 13.13 M253.75 13.13 C252.13 20.91, 255.52 31.69, 253.75 39.38 M253.75 13.13 C252.79 20.98, 254.47 31.51, 253.75 39.38 M253.75 39.38 C254.24 49.49, 247.64 51.55, 240.63 52.5 M253.75 39.38 C255.26 50.33, 248.46 50.39, 240.63 52.5 M240.63 52.5 C177.76 51.32, 118.11 53.58, 13.13 52.5 M240.63 52.5 C192.06 52.93, 144.04 51.91, 13.13 52.5 M13.13 52.5 C3.41 50.58, 1.67 47.54, 0 39.38 M13.13 52.5 C6.58 51.13, -1.49 46.11, 0 39.38 M0 39.38 C-0.06 32.05, 1.78 22.61, 0 13.13 M0 39.38 C0.22 28.4, -0.86 18.89, 0 13.13 M0 13.13 C1.31 2.56, 3.12 -0.83, 13.13 0 M0 13.13 C1.72 3.74, 6.6 -0.33, 13.13 0" stroke="#1e1e1e" stroke-width="2" fill="none"></path></g><g stroke-linecap="round" transform="translate(375.03125 994.546875) rotate(0 126.8828125 26.25)"><path d="M13.13 0 C77.24 1.58, 144.46 -0.72, 240.64 0 C246.81 0.69, 256.49 2.81, 253.77 13.13 C253.27 21.57, 256.89 27.53, 253.77 39.38 C254.98 47.63, 248.3 55.61, 240.64 52.5 C194.74 54.77, 148.87 57.85, 13.13 52.5 C1.28 53.48, -1.8 47.07, 0 39.38 C3.45 33.69, 2.05 21.15, 0 13.13 C-2.86 6.81, 1.92 -0.68, 13.13 0" stroke="none" stroke-width="0" fill="#FFB74D"></path><path d="M13.13 0 C64.49 0.4, 117.85 -2.04, 240.64 0 M13.13 0 C100.45 2.57, 188.19 1.47, 240.64 0 M240.64 0 C250.02 0.99, 254.51 2.86, 253.77 13.13 M240.64 0 C248.48 2.15, 255.32 5.62, 253.77 13.13 M253.77 13.13 C252.29 21.96, 253.78 27.72, 253.77 39.38 M253.77 13.13 C252.7 20.56, 254.5 26.54, 253.77 39.38 M253.77 39.38 C255.13 46.39, 248.44 53.82, 240.64 52.5 M253.77 39.38 C255.98 47.21, 247.28 51.79, 240.64 52.5 M240.64 52.5 C176.18 50.45, 114.85 49.1, 13.13 52.5 M240.64 52.5 C171.59 52.36, 101.01 51.72, 13.13 52.5 M13.13 52.5 C2.46 54.17, -0.59 50.04, 0 39.38 M13.13 52.5 C3.01 51.01, -2.02 49.33, 0 39.38 M0 39.38 C2.11 35.5, 1.92 30.47, 0 13.13 M0 39.38 C-0.49 29.75, 0.38 22.31, 0 13.13 M0 13.13 C-1.81 3.12, 3.55 1.5, 13.13 0 M0 13.13 C-0.64 6.6, 4.04 0.78, 13.13 0" stroke="#1e1e1e" stroke-width="2" fill="none"></path></g><g stroke-linecap="round" transform="translate(53.421875 1157.8828125) rotate(0 88.1171875 26.25)"><path d="M13.13 0 C52.72 -0.71, 88.55 0.03, 163.11 0 C172.55 2.72, 174.67 2.25, 176.23 13.13 C178.47 26.15, 178.1 35.03, 176.23 39.38 C175.74 47.03, 174.97 48.99, 163.11 52.5 C130.71 53.14, 102.43 49.57, 13.13 52.5 C5.35 50.7, -1.06 50.01, 0 39.38 C3.7 33.32, 0.41 20.21, 0 13.13 C2.44 1.92, 3.7 3.01, 13.13 0" stroke="none" stroke-width="0" fill="#FFF176"></path><path d="M13.13 0 C68.39 0.42, 119.65 2.84, 163.11 0 M13.13 0 C57.09 0.36, 98.91 0.73, 163.11 0 M163.11 0 C172.85 0.75, 174.72 3.58, 176.23 13.13 M163.11 0 C174.01 1.55, 177.48 3.59, 176.23 13.13 M176.23 13.13 C177.89 21.37, 176.68 28.67, 176.23 39.38 M176.23 13.13 C176.86 20.02, 176.26 25.75, 176.23 39.38 M176.23 39.38 C174.5 47.18, 173.17 54.42, 163.11 52.5 M176.23 39.38 C175.32 46.02, 171.15 52.03, 163.11 52.5 M163.11 52.5 C120.28 53.35, 76.04 51.85, 13.13 52.5 M163.11 52.5 C119.06 52.83, 74 52.45, 13.13 52.5 M13.13 52.5 C6.05 51.91, 1.91 46.93, 0 39.38 M13.13 52.5 C2.89 50.48, 1.2 45.96, 0 39.38 M0 39.38 C1.57 35.16, 1.96 28.25, 0 13.13 M0 39.38 C-0.85 32.68, 0.57 24.48, 0 13.13 M0 13.13 C-1.25 3.55, 5.87 -0.55, 13.13 0 M0 13.13 C2.23 4.04, 5.16 -0.12, 13.13 0" stroke="#1e1e1e" stroke-width="2" fill="none"></path></g><g stroke-linecap="round" transform="translate(286.015625 1299.3984375) rotate(0 94.84375 26.25)"><path d="M13.13 0 C55.72 -2.5, 102.38 -0.19, 176.56 0 C188.04 -1.56, 187.56 7.76, 189.69 13.13 C192.24 23.37, 190.78 29.61, 189.69 39.38 C188.59 51.23, 181.81 49.35, 176.56 52.5 C115.33 55.17, 50.04 53.06, 13.13 52.5 C2.58 51.44, 1.89 48.51, 0 39.38 C1.64 32.55, -3.32 27.62, 0 13.13 C-2.45 3.7, 7.39 0.3, 13.13 0" stroke="none" stroke-width="0" fill="#E57373"></path><path d="M13.13 0 C66.26 -2.65, 122.54 -1.19, 176.56 0 M13.13 0 C46.54 -1.82, 80.39 -0.88, 176.56 0 M176.56 0 C186.06 -1.51, 188.9 6.24, 189.69 13.13 M176.56 0 C186.87 1.24, 188.9 4.72, 189.69 13.13 M189.69 13.13 C189.47 19.64, 188.51 23.4, 189.69 39.38 M189.69 13.13 C190.39 19.05, 190.14 23.63, 189.69 39.38 M189.69 39.38 C188.74 49.44, 187.23 51.71, 176.56 52.5 M189.69 39.38 C187.58 47.41, 184.84 52.14, 176.56 52.5 M176.56 52.5 C145.21 50.62, 110.73 52.28, 13.13 52.5 M176.56 52.5 C130.04 52.45, 83.73 53.77, 13.13 52.5 M13.13 52.5 C3.79 54.41, -1.19 46.83, 0 39.38 M13.13 52.5 C2.36 53.7, -2.16 46.43, 0 39.38 M0 39.38 C1.48 33.82, 0.5 23.75, 0 13.13 M0 39.38 C0.45 31.31, -0.75 21.32, 0 13.13 M0 13.13 C-0.83 5.87, 3.82 1.94, 13.13 0 M0 13.13 C-0.33 5.16, 4.26 -0.99, 13.13 0" stroke="#1e1e1e" stroke-width="2" fill="none"></path></g><g stroke-linecap="round" transform="translate(750.31640625 1384.62890625) rotate(0 114.765625 26.25)"><path d="M13.13 0 C53 0.71, 96.39 5.46, 216.41 0 C223.59 -2.13, 232.92 5.21, 229.53 13.13 C231.57 21.52, 229.32 26.4, 229.53 39.38 C232.64 44.62, 222.01 55.29, 216.41 52.5 C156.95 50.17, 92.84 51.33, 13.13 52.5 C3.32 54.39, 0.38 47.06, 0 39.38 C-0.19 26.08, 1.97 16.06, 0 13.13 C-0.68 7.39, 4.68 -2.46, 13.13 0" stroke="none" stroke-width="0" fill="#64B5F6"></path><path d="M13.13 0 C57.02 2.18, 103.76 -1.04, 216.41 0 M13.13 0 C68.03 0.39, 124.18 0.44, 216.41 0 M216.41 0 C223.64 -0.79, 231.4 5.73, 229.53 13.13 M216.41 0 C226.4 -0.79, 229.87 2.61, 229.53 13.13 M229.53 13.13 C230.43 18.03, 228.32 23.24, 229.53 39.38 M229.53 13.13 C230 19.38, 228.89 23.79, 229.53 39.38 M229.53 39.38 C230.85 50.05, 224.36 50.67, 216.41 52.5 M229.53 39.38 C228.82 47.65, 224.8 50.24, 216.41 52.5 M216.41 52.5 C164.28 54.08, 115.19 53.63, 13.13 52.5 M216.41 52.5 C142.63 50.58, 70.46 51.18, 13.13 52.5 M13.13 52.5 C6.29 51.31, -1.29 46.37, 0 39.38 M13.13 52.5 C5.58 50.34, -1.7 47.78, 0 39.38 M0 39.38 C1.72 29.73, -0.87 19.23, 0 13.13 M0 39.38 C0.86 32.11, -0.43 26.25, 0 13.13 M0 13.13 C1.5 3.82, 6.31 -0.29, 13.13 0 M0 13.13 C0.78 4.26, 3.38 -0.44, 13.13 0" stroke="#1e1e1e" stroke-width="2" fill="none"></path></g><g stroke-linecap="round" transform="translate(10 1330.6015625) rotate(0 75.59375 26.25)"><path d="M13.13 0 C51.75 1.7, 98.27 -0.55, 138.06 0 C144.68 3.39, 152.03 3.43, 151.19 13.13 C152.75 22.06, 150.44 35.08, 151.19 39.38 C147.68 44.98, 149.61 52.72, 138.06 52.5 C99.28 55.41, 64.89 53.37, 13.13 52.5 C6.26 52.88, -1.07 51.63, 0 39.38 C-3.14 31.34, -2.73 17.75, 0 13.13 C3.01 4.68, 1.92 3.47, 13.13 0" stroke="none" stroke-width="0" fill="#7986CB"></path><path d="M13.13 0 C59.45 0.82, 100.48 0.51, 138.06 0 M13.13 0 C61.48 1.05, 109.58 -0.2, 138.06 0 M138.06 0 C146.02 1.87, 152.54 5.46, 151.19 13.13 M138.06 0 C146.02 0.34, 149.42 2.64, 151.19 13.13 M151.19 13.13 C150.2 21.99, 149.52 32, 151.19 39.38 M151.19 13.13 C152.11 22.36, 150.96 33.98, 151.19 39.38 M151.19 39.38 C153.11 47.33, 144.98 51.88, 138.06 52.5 M151.19 39.38 C150.72 47.77, 144.55 51.32, 138.06 52.5 M138.06 52.5 C101.71 51.32, 64.75 52.63, 13.13 52.5 M138.06 52.5 C96.3 52.73, 56.17 52.85, 13.13 52.5 M13.13 52.5 C3.18 51.21, -1.75 49.17, 0 39.38 M13.13 52.5 C2.21 50.8, -0.35 50.33, 0 39.38 M0 39.38 C0.52 28.82, 0.41 18.45, 0 13.13 M0 39.38 C-0.98 32.87, -0.49 28.37, 0 13.13 M0 13.13 C-0.55 6.31, 4.09 0.68, 13.13 0 M0 13.13 C-0.12 3.38, 3.94 -2.22, 13.13 0" stroke="#1e1e1e" stroke-width="2" fill="none"></path></g><g stroke-linecap="round" transform="translate(804.87109375 1524.62890625) rotate(0 60.2109375 26.25)"><path d="M13.13 0 C33.37 3.94, 50.67 -0.91, 107.3 0 C119.43 0.84, 119.48 6.5, 120.42 13.13 C120.16 21.86, 123.76 29.28, 120.42 39.38 C117.27 50.92, 116.27 51.98, 107.3 52.5 C78.77 49.25, 47.23 52.93, 13.13 52.5 C4.76 51.43, 3.5 51.69, 0 39.38 C2.4 27.52, -0.71 23.57, 0 13.13 C0.3 1.92, 7.84 -2.91, 13.13 0" stroke="none" stroke-width="0" fill="#BA68C8"></path><path d="M13.13 0 C37.71 -2.7, 62.24 0.89, 107.3 0 M13.13 0 C41.31 0.08, 67.74 -0.69, 107.3 0 M107.3 0 C117.92 1.35, 121.5 3.69, 120.42 13.13 M107.3 0 C116.39 -1.76, 118.68 6.51, 120.42 13.13 M120.42 13.13 C119.06 19.3, 118.75 30.51, 120.42 39.38 M120.42 13.13 C119.62 22.96, 121.14 34.71, 120.42 39.38 M120.42 39.38 C119.63 46.29, 115.43 52.09, 107.3 52.5 M120.42 39.38 C120.06 45.87, 114.87 52.31, 107.3 52.5 M107.3 52.5 C71.33 52.18, 36.75 53.09, 13.13 52.5 M107.3 52.5 C85.38 51.31, 62.75 51, 13.13 52.5 M13.13 52.5 C3.08 50.75, 1.04 46.25, 0 39.38 M13.13 52.5 C2.68 52.15, 2.2 49.88, 0 39.38 M0 39.38 C-0.92 29.87, -1.41 17.57, 0 13.13 M0 39.38 C-0.8 30.31, 0.58 21.8, 0 13.13 M0 13.13 C1.94 4.09, 5.06 -0.1, 13.13 0 M0 13.13 C-0.99 3.94, 2.15 0.69, 13.13 0" stroke="#1e1e1e" stroke-width="2" fill="none"></path></g><g stroke-linecap="round" transform="translate(786.30859375 1627.12890625) rotate(0 78.7734375 26.25)"><path d="M13.13 0 C49.33 -2.02, 77.95 2.93, 144.42 0 C154.01 -0.94, 159.67 7.06, 157.55 13.13 C156.61 25.39, 154.2 28.29, 157.55 39.38 C160.34 48.34, 152.66 52.98, 144.42 52.5 C91.97 52.09, 44.99 53.53, 13.13 52.5 C3.31 56, 3.56 50.23, 0 39.38 C-2.08 30.62, 3.39 23.53, 0 13.13 C-2.46 7.84, 1.47 -3.36, 13.13 0" stroke="none" stroke-width="0" fill="#81C784"></path><path d="M13.13 0 C39.36 -0.39, 71.09 0.04, 144.42 0 M13.13 0 C47.09 -1.41, 79.91 0.28, 144.42 0 M144.42 0 C154.52 1.08, 156.86 4.67, 157.55 13.13 M144.42 0 C151.41 -1.74, 159.69 4.35, 157.55 13.13 M157.55 13.13 C155.75 20.1, 159.11 32.44, 157.55 39.38 M157.55 13.13 C157.25 22.3, 158.69 29.77, 157.55 39.38 M157.55 39.38 C155.71 47.5, 152.76 52.19, 144.42 52.5 M157.55 39.38 C155.29 46.95, 152.98 54.36, 144.42 52.5 M144.42 52.5 C116.11 53.66, 89.08 51.27, 13.13 52.5 M144.42 52.5 C111.09 54.56, 77.74 52.95, 13.13 52.5 M13.13 52.5 C2.62 53.54, -1.88 46.65, 0 39.38 M13.13 52.5 C4.03 54.7, 1.76 50.11, 0 39.38 M0 39.38 C0.54 27.83, -1.62 19.18, 0 13.13 M0 39.38 C-0.18 30.53, -0.04 21.15, 0 13.13 M0 13.13 C-0.29 5.06, 4.27 -0.86, 13.13 0 M0 13.13 C-0.44 2.15, 5.06 -2.12, 13.13 0" stroke="#1e1e1e" stroke-width="2" fill="none"></path></g><g stroke-linecap="round"><g transform="translate(695.97246875 77.546875) rotate(0 0 24.5)"><path d="M-1.14 -0.34 C-1.14 7.84, 0.91 40.64, 1.01 48.93 M0.46 -1.56 C0.3 6.83, 0.94 42.3, 0.6 50.43" stroke="black" stroke-width="2" fill="none"></path></g><g transform="translate(695.97246875 77.546875) rotate(0 0 24.5)"><path d="M-7.63 27.35 C-5.05 38, -1.44 44.31, 0.6 50.43 M-7.63 27.35 C-5.54 34.57, -1.12 43.3, 0.6 50.43" stroke="black" stroke-width="2" fill="none"></path></g><g transform="translate(695.97246875 77.546875) rotate(0 0 24.5)"><path d="M9.13 27.46 C5.26 37.91, 2.42 44.17, 0.6 50.43 M9.13 27.46 C5.66 34.71, 4.52 43.4, 0.6 50.43" stroke="black" stroke-width="2" fill="none"></path></g></g><mask></mask><g mask="url(#mask-SnNfRs4Ujfk2vZXU8uqtX)" stroke-linecap="round"><g transform="translate(695.97246875 180.046875) rotate(0 0 43.25)"><path d="M-0.34 1.01 C-0.32 15.53, -0.19 71.62, -0.07 85.97 M1.69 0.5 C1.55 15.28, -0.75 73.13, -1.06 87.23" stroke="black" stroke-width="2" fill="none"></path></g><g transform="translate(695.97246875 180.046875) rotate(0 0 43.25)"><path d="M-10.42 58.73 C-6.31 66.83, -6.19 75.77, -1.06 87.23 M-10.42 58.73 C-7.43 69.7, -3.09 79.27, -1.06 87.23" stroke="black" stroke-width="2" fill="none"></path></g><g transform="translate(695.97246875 180.046875) rotate(0 0 43.25)"><path d="M10.09 59.38 C8.31 67.23, 2.53 75.99, -1.06 87.23 M10.09 59.38 C5.9 69.97, 3.07 79.31, -1.06 87.23" stroke="black" stroke-width="2" fill="none"></path></g></g><mask id="mask-SnNfRs4Ujfk2vZXU8uqtX"><rect x="0" y="0" fill="#fff" width="795.97246875" height="366.546875"></rect><rect x="620.0125307006836" y="198.296875" fill="#000" width="151.9198760986328" height="50" opacity="1"></rect></mask><g stroke-linecap="round"><g transform="translate(695.97246875 320.046875) rotate(0 0 24.5)"><path d="M1.01 -0.07 C1.12 8.21, -0.46 41.12, -0.53 49.38 M0.09 -1.16 C0.09 6.79, -1.77 39.37, -1.76 47.45" stroke="black" stroke-width="2" fill="none"></path></g><g transform="translate(695.97246875 320.046875) rotate(0 0 24.5)"><path d="M-9.41 24.18 C-8.03 28, -5.71 34.64, -1.76 47.45 M-9.41 24.18 C-6.07 32.74, -3.88 39.57, -1.76 47.45" stroke="black" stroke-width="2" fill="none"></path></g><g transform="translate(695.97246875 320.046875) rotate(0 0 24.5)"><path d="M7.34 24.71 C5.29 28.56, 4.18 35.1, -1.76 47.45 M7.34 24.71 C5.03 33.02, 1.57 39.68, -1.76 47.45" stroke="black" stroke-width="2" fill="none"></path></g></g><mask></mask><g mask="url(#mask-DuHE2VY0JVba9xZt2kHi7)" stroke-linecap="round"><g transform="translate(695.97246875 422.546875) rotate(0 0 43.25)"><path d="M-0.07 -0.53 C0.05 13.82, 0.29 72.74, 0.38 87.1 M-1.57 1.81 C-1.55 16.32, -0.62 71.18, -0.37 85.29" stroke="black" stroke-width="2" fill="none"></path></g><g transform="translate(695.97246875 422.546875) rotate(0 0 43.25)"><path d="M-11.11 57.27 C-8.83 65.53, -4.03 73.27, -0.37 85.29 M-11.11 57.27 C-8.13 64, -6.74 69.89, -0.37 85.29" stroke="black" stroke-width="2" fill="none"></path></g><g transform="translate(695.97246875 422.546875) rotate(0 0 43.25)"><path d="M9.41 56.93 C6.11 65.27, 5.32 73.1, -0.37 85.29 M9.41 56.93 C7.78 63.92, 4.57 69.89, -0.37 85.29" stroke="black" stroke-width="2" fill="none"></path></g></g><mask id="mask-DuHE2VY0JVba9xZt2kHi7"><rect x="0" y="0" fill="#fff" width="795.97246875" height="610.046875"></rect><rect x="637.73028125" y="453.296875" fill="#000" width="116.484375" height="25" opacity="1"></rect></mask><g mask="url(#mask-CPtjyK6nstC45Ll604-3R)" stroke-linecap="round"><g transform="translate(628.36346875 560.684875) rotate(0 -63.22449999999999 44.18099999999998)"><path d="M-0.53 0.38 C-21.67 7.98, -104.71 30.98, -125.85 45.56 C-146.99 60.15, -127.44 80.62, -127.36 87.89 M1.39 -0.47 C-19.95 6.78, -105.43 28.77, -126.49 43.67 C-147.54 58.58, -124.66 81.73, -124.94 88.96" stroke="black" stroke-width="2" fill="none"></path></g><g transform="translate(628.36346875 560.684875) rotate(0 -63.22449999999999 44.18099999999998)"><path d="M-139.53 73 C-133.3 80.19, -127.57 83.82, -124.94 88.96 M-139.53 73 C-135.04 76.71, -131.63 80.44, -124.94 88.96" stroke="black" stroke-width="2" fill="none"></path></g><g transform="translate(628.36346875 560.684875) rotate(0 -63.22449999999999 44.18099999999998)"><path d="M-125.86 67.35 C-124.89 76.66, -124.42 82.46, -124.94 88.96 M-125.86 67.35 C-124.88 72.63, -125.03 77.83, -124.94 88.96" stroke="black" stroke-width="2" fill="none"></path></g></g><mask id="mask-CPtjyK6nstC45Ll604-3R"><rect x="0" y="0" fill="#fff" width="854.81246875" height="750.046875"></rect><rect x="424.1556796875" y="593.2968749999999" fill="#000" width="155.517578125" height="25" opacity="1"></rect></mask><g stroke-linecap="round"><g transform="translate(501.91446874999997 702.546875) rotate(0 0 24.5)"><path d="M0.38 0.6 C0.47 8.7, 0.59 39.84, 0.45 48.09 M-0.88 -0.14 C-0.91 8.14, -0.16 41.07, -0.26 49.15" stroke="black" stroke-width="2" fill="none"></path></g><g transform="translate(501.91446874999997 702.546875) rotate(0 0 24.5)"><path d="M-8.81 26.19 C-5.41 33.66, -5.4 38.88, -0.26 49.15 M-8.81 26.19 C-5.64 35.33, -2.7 43.46, -0.26 49.15" stroke="black" stroke-width="2" fill="none"></path></g><g transform="translate(501.91446874999997 702.546875) rotate(0 0 24.5)"><path d="M7.95 26.07 C6.42 33.63, 1.5 38.88, -0.26 49.15 M7.95 26.07 C4.53 35.35, 0.87 43.52, -0.26 49.15" stroke="black" stroke-width="2" fill="none"></path></g></g><mask></mask><g stroke-linecap="round"><g transform="translate(439.84446875000003 805.046875) rotate(0 -29.557000000000002 24.5)"><path d="M0.6 0.45 C-9.32 4.39, -50.26 15.8, -60.02 24.03 C-69.79 32.25, -58.25 45.72, -57.99 49.81 M-0.55 -0.36 C-10.05 3.71, -48.18 17.27, -57.79 25.31 C-67.39 33.36, -58.15 43.87, -58.17 47.89" stroke="black" stroke-width="2" fill="none"></path></g><g transform="translate(439.84446875000003 805.046875) rotate(0 -29.557000000000002 24.5)"><path d="M-65.81 38.32 C-63.37 39.8, -62.35 44.32, -58.17 47.89 M-65.81 38.32 C-62.86 41.39, -60.6 45.95, -58.17 47.89" stroke="black" stroke-width="2" fill="none"></path></g><g transform="translate(439.84446875000003 805.046875) rotate(0 -29.557000000000002 24.5)"><path d="M-57.87 35.65 C-57.45 37.86, -58.47 43.06, -58.17 47.89 M-57.87 35.65 C-57.82 39.68, -58.49 45.22, -58.17 47.89" stroke="black" stroke-width="2" fill="none"></path></g></g><mask></mask><g stroke-linecap="round"><g transform="translate(381.23046875 907.546875) rotate(0 37.370000000000005 43.25)"><path d="M0.45 -0.91 C12.76 13.6, 61.75 72.95, 74.27 87.62 M-0.77 1.23 C11.31 15.38, 60.4 72.1, 73.07 86.09" stroke="black" stroke-width="2" fill="none"></path></g><g transform="translate(381.23046875 907.546875) rotate(0 37.370000000000005 43.25)"><path d="M46.72 71.74 C54.02 75.6, 66.13 82.51, 73.07 86.09 M46.72 71.74 C55.24 76.02, 66.26 81.85, 73.07 86.09" stroke="black" stroke-width="2" fill="none"></path></g><g transform="translate(381.23046875 907.546875) rotate(0 37.370000000000005 43.25)"><path d="M62.11 58.16 C64.37 66.59, 71.39 77.99, 73.07 86.09 M62.11 58.16 C65.13 67.28, 70.71 77.91, 73.07 86.09" stroke="black" stroke-width="2" fill="none"></path></g></g><mask></mask><g mask="url(#mask-TDMLXrWk9w0DgyDsH2_Bx)" stroke-linecap="round"><g transform="translate(546.85746875 994.046875) rotate(0 38.120000000000005 -94.5)"><path d="M-0.91 -0.47 C11.89 -7.62, 74.16 -10.95, 77.36 -42.44 C80.56 -73.93, 28.2 -164.83, 18.27 -189.41 M0.82 -1.77 C13.5 -9.29, 74.16 -13.05, 77 -44.14 C79.84 -75.23, 27.66 -164.12, 17.85 -188.31" stroke="black" stroke-width="2" fill="none"></path></g><g transform="translate(546.85746875 994.046875) rotate(0 38.120000000000005 -94.5)"><path d="M39.48 -167.53 C31.05 -173.09, 25.63 -181.15, 17.85 -188.31 M39.48 -167.53 C32.95 -172.28, 27.95 -178.41, 17.85 -188.31" stroke="black" stroke-width="2" fill="none"></path></g><g transform="translate(546.85746875 994.046875) rotate(0 38.120000000000005 -94.5)"><path d="M21.06 -158.48 C19.04 -167.07, 20.06 -178.29, 17.85 -188.31 M21.06 -158.48 C19.41 -165.5, 19.3 -174.03, 17.85 -188.31" stroke="black" stroke-width="2" fill="none"></path></g></g><mask id="mask-TDMLXrWk9w0DgyDsH2_Bx"><rect x="0" y="0" fill="#fff" width="722.59746875" height="1284.046875"></rect><rect x="562.82403125" y="938.296875" fill="#000" width="120.546875" height="25" opacity="1"></rect></mask><g mask="url(#mask-ZhDexBb4sWo6i3Ipv4EU5)" stroke-linecap="round"><g transform="translate(264.43359375 908.9980625) rotate(0 -31.252374043362245 123.94237500000003)"><path d="M-0.47 1.12 C-6.65 13.56, -26.17 32.58, -36.58 73.73 C-46.98 114.89, -58.44 219.19, -62.92 248.06 M1.48 0.67 C-4.82 12.84, -26.2 30.48, -37.1 71.95 C-47.99 113.42, -59.47 220.2, -63.9 249.47" stroke="black" stroke-width="2" fill="none"></path></g><g transform="translate(264.43359375 908.9980625) rotate(0 -31.252374043362245 123.94237500000003)"><path d="M-70.41 220.19 C-66.57 231.45, -65.16 239.29, -63.9 249.47 M-70.41 220.19 C-67.66 229.45, -66.21 238.19, -63.9 249.47" stroke="black" stroke-width="2" fill="none"></path></g><g transform="translate(264.43359375 908.9980625) rotate(0 -31.252374043362245 123.94237500000003)"><path d="M-50.07 222.85 C-53.07 233.13, -58.52 240.08, -63.9 249.47 M-50.07 222.85 C-53.7 231.12, -58.66 239.02, -63.9 249.47" stroke="black" stroke-width="2" fill="none"></path></g></g><mask id="mask-ZhDexBb4sWo6i3Ipv4EU5"><rect x="0" y="0" fill="#fff" width="426.9383418367245" height="1256.8828125"></rect><rect x="165.60703497314455" y="969.5820312499999" fill="#000" width="122.87986755371094" height="25" opacity="1"></rect></mask><g mask="url(#mask-fFJO5HNEofGjpP-D2r_yV)" stroke-linecap="round"><g transform="translate(230.65625000000006 1171.8126985785893) rotate(0 90.44431632346917 63.29286946070533)"><path d="M1.12 0.81 C15.13 10.63, 53.13 37.64, 83.13 58.45 C113.12 79.26, 164.92 114.12, 181.07 125.67 M0.25 0.19 C14.24 10.22, 52.49 38.72, 82.52 59.77 C112.54 80.82, 164.19 115.51, 180.4 126.5" stroke="black" stroke-width="2" fill="none"></path></g><g transform="translate(230.65625000000006 1171.8126985785893) rotate(0 90.44431632346917 63.29286946070533)"><path d="M151.29 119.22 C159.15 121.66, 163.64 122.51, 180.4 126.5 M151.29 119.22 C157.73 120.9, 163.75 121.47, 180.4 126.5" stroke="black" stroke-width="2" fill="none"></path></g><g transform="translate(230.65625000000006 1171.8126985785893) rotate(0 90.44431632346917 63.29286946070533)"><path d="M162.78 102.21 C167.99 108.58, 169.9 113.25, 180.4 126.5 M162.78 102.21 C166.52 107.8, 169.97 112.17, 180.4 126.5" stroke="black" stroke-width="2" fill="none"></path></g></g><mask id="mask-fFJO5HNEofGjpP-D2r_yV"><rect x="0" y="0" fill="#fff" width="511.5448826469384" height="1398.3984375"></rect><rect x="254.0027047729492" y="1218.17578125" fill="#000" width="118.25990295410156" height="25" opacity="1"></rect></mask><g mask="url(#mask-iYNU-XQqpeZLwiR5VGWyi)" stroke-linecap="round"><g transform="translate(473.9239063514825 1352.8984375) rotate(0 137.69624994925874 23.977032434460284)"><path d="M0.81 0.65 C46.72 8.48, 229.37 40.4, 274.98 48.13 M-0.22 -0.06 C45.53 8.51, 227.63 41.77, 273.82 49.76" stroke="black" stroke-width="2" fill="none"></path></g><g transform="translate(473.9239063514825 1352.8984375) rotate(0 137.69624994925874 23.977032434460284)"><path d="M244.26 54.91 C252.99 52.68, 259.91 50.5, 273.82 49.76 M244.26 54.91 C251.17 53.27, 256.75 51.77, 273.82 49.76" stroke="black" stroke-width="2" fill="none"></path></g><g transform="translate(473.9239063514825 1352.8984375) rotate(0 137.69624994925874 23.977032434460284)"><path d="M247.87 34.71 C255.85 37.77, 261.82 40.84, 273.82 49.76 M247.87 34.71 C254.16 37.6, 258.93 40.63, 273.82 49.76" stroke="black" stroke-width="2" fill="none"></path></g></g><mask id="mask-iYNU-XQqpeZLwiR5VGWyi"><rect x="0" y="0" fill="#fff" width="849.31640625" height="1500.8525023689206"></rect><rect x="542.8302164203702" y="1364.3754699344604" fill="#000" width="137.5798797607422" height="25" opacity="1"></rect></mask><g mask="url(#mask-bTDEQ3DTwnfGLL8zFCRqG)" stroke-linecap="round"><g transform="translate(126.765625 1213.6496468171806) rotate(0 -16.185546875 58.2360192918992)"><path d="M0.65 -0.41 C-2.46 9.32, -11.9 39.53, -17.56 59.19 C-23.21 78.86, -30.81 107.98, -33.28 117.59 M-0.47 -1.67 C-3.82 8.11, -13.35 40.66, -18.41 60.25 C-23.48 79.83, -28.57 106.18, -30.86 115.83" stroke="black" stroke-width="2" fill="none"></path></g><g transform="translate(126.765625 1213.6496468171806) rotate(0 -16.185546875 58.2360192918992)"><path d="M-34.76 86.98 C-33.72 98.61, -33.03 108.15, -30.86 115.83 M-34.76 86.98 C-33.72 97.58, -32.53 108.77, -30.86 115.83" stroke="black" stroke-width="2" fill="none"></path></g><g transform="translate(126.765625 1213.6496468171806) rotate(0 -16.185546875 58.2360192918992)"><path d="M-15.3 91.22 C-21.94 101.29, -28.91 109.16, -30.86 115.83 M-15.3 91.22 C-21.91 100.22, -28.37 109.74, -30.86 115.83" stroke="black" stroke-width="2" fill="none"></path></g></g><mask id="mask-bTDEQ3DTwnfGLL8zFCRqG"><rect x="0" y="0" fill="#fff" width="259.13671875" height="1430.121685400979"></rect><rect x="59.78773541259761" y="1261.2617187500002" fill="#000" width="98.47990417480469" height="25" opacity="1"></rect></mask><g mask="url(#mask-5OqLEjgq4pJu_VBnbCMy0)" stroke-linecap="round"><g transform="translate(889.5168332720098 1383.62890625) rotate(0 137.8915261029902 -416.508015625)"><path d="M-0.41 0.18 C66.17 -63.73, 420.95 -243.95, 400.3 -382.82 C379.65 -521.69, -36.76 -757.9, -124.32 -833.03 M1.57 -0.77 C68.45 -64.62, 423.54 -243.27, 402.53 -381.76 C381.51 -520.25, -36.65 -756.54, -124.5 -831.72" stroke="black" stroke-width="2" fill="none"></path></g><g transform="translate(889.5168332720098 1383.62890625) rotate(0 137.8915261029902 -416.508015625)"><path d="M-95.52 -823.94 C-105.92 -828.43, -118.38 -827.9, -124.5 -831.72 M-95.52 -823.94 C-104.94 -827.24, -113.75 -827.88, -124.5 -831.72" stroke="black" stroke-width="2" fill="none"></path></g><g transform="translate(889.5168332720098 1383.62890625) rotate(0 137.8915261029902 -416.508015625)"><path d="M-107.3 -807.13 C-113.46 -817.76, -121.59 -823.41, -124.5 -831.72 M-107.3 -807.13 C-113.25 -815.4, -118.54 -821.07, -124.5 -831.72" stroke="black" stroke-width="2" fill="none"></path></g></g><mask id="mask-5OqLEjgq4pJu_VBnbCMy0"><rect x="0" y="0" fill="#fff" width="1516.1686145220096" height="2316.6449375"></rect><rect x="1219.1843003540039" y="989.21484375" fill="#000" width="143.0998992919922" height="25" opacity="1"></rect></mask><g mask="url(#mask-qe4_Os54bsqvaFFO4ke00)" stroke-linecap="round"><g transform="translate(865.08253125 1437.62890625) rotate(0 0 43.25)"><path d="M0.18 -0.92 C-0.08 13.75, -0.88 72.98, -0.91 87.62 M-1.19 1.21 C-1.13 15.61, 1.26 72.16, 1.33 86.08" stroke="black" stroke-width="2" fill="none"></path></g><g transform="translate(865.08253125 1437.62890625) rotate(0 0 43.25)"><path d="M-9.66 58.16 C-7.4 66.52, -0.11 77.89, 1.33 86.08 M-9.66 58.16 C-6.98 66.65, -1.64 77.74, 1.33 86.08" stroke="black" stroke-width="2" fill="none"></path></g><g transform="translate(865.08253125 1437.62890625) rotate(0 0 43.25)"><path d="M10.86 57.63 C5.85 66.21, 5.87 77.77, 1.33 86.08 M10.86 57.63 C6.71 66.15, 5.23 77.41, 1.33 86.08" stroke="black" stroke-width="2" fill="none"></path></g></g><mask id="mask-qe4_Os54bsqvaFFO4ke00"><rect x="0" y="0" fill="#fff" width="965.08253125" height="1625.12890625"></rect><rect x="803.98878125" y="1468.37890625" fill="#000" width="122.1875" height="25" opacity="1"></rect></mask><g stroke-linecap="round"><g transform="translate(865.08253125 1577.62890625) rotate(0 0 24.5)"><path d="M-0.42 -0.42 C-0.3 7.74, 0.41 40.8, 0.51 48.99 M0.36 0.56 C0.47 8.8, 0.42 41.59, 0.34 49.69" stroke="black" stroke-width="2" fill="none"></path></g><g transform="translate(865.08253125 1577.62890625) rotate(0 0 24.5)"><path d="M-7.93 26.63 C-6.47 33.72, -3.53 39.24, 0.34 49.69 M-7.93 26.63 C-6.38 32.87, -3.4 38.36, 0.34 49.69" stroke="black" stroke-width="2" fill="none"></path></g><g transform="translate(865.08253125 1577.62890625) rotate(0 0 24.5)"><path d="M8.83 26.71 C5.83 33.71, 4.33 39.21, 0.34 49.69 M8.83 26.71 C6.18 32.86, 4.95 38.32, 0.34 49.69" stroke="black" stroke-width="2" fill="none"></path></g></g><mask></mask><g transform="translate(640.1474609375 38.296875) rotate(0 55.8251953125 12.5)"><text x="55.8251953125" y="0" font-family="Virgil, Segoe UI Emoji" font-size="20px" fill="#1e1e1e" text-anchor="middle" style="white-space: pre;" direction="ltr" dominant-baseline="text-before-edge">Start Program</text></g><g transform="translate(634.05859375 140.796875) rotate(0 61.9140625 12.5)"><text x="61.9140625" y="0" font-family="Virgil, Segoe UI Emoji" font-size="20px" fill="#1e1e1e" text-anchor="middle" style="white-space: pre;" direction="ltr" dominant-baseline="text-before-edge">Initialize Game</text></g><g transform="translate(613.21875 280.796875) rotate(0 82.75390625 12.5)"><text x="82.75390625" y="0" font-family="Virgil, Segoe UI Emoji" font-size="20px" fill="#1e1e1e" text-anchor="middle" style="white-space: pre;" direction="ltr" dominant-baseline="text-before-edge">Display Intro Screen</text></g><g transform="translate(598.0185546875 383.296875) rotate(0 97.9541015625 12.5)"><text x="97.9541015625" y="0" font-family="Virgil, Segoe UI Emoji" font-size="20px" fill="#1e1e1e" text-anchor="middle" style="white-space: pre;" direction="ltr" dominant-baseline="text-before-edge">Set Timer to Load Level</text></g><g transform="translate(650.162109375 523.296875) rotate(0 45.810546875 12.5)"><text x="45.810546875" y="0" font-family="Virgil, Segoe UI Emoji" font-size="20px" fill="#1e1e1e" text-anchor="middle" style="white-space: pre;" direction="ltr" dominant-baseline="text-before-edge">Load Level</text></g><g transform="translate(406.6650390625 663.296875) rotate(0 95.2490234375 12.5)"><text x="95.2490234375" y="0" font-family="Virgil, Segoe UI Emoji" font-size="20px" fill="#1e1e1e" text-anchor="middle" style="white-space: pre;" direction="ltr" dominant-baseline="text-before-edge">Enter Main Game Loop</text></g><g transform="translate(446.650390625 765.796875) rotate(0 55.263671875 12.5)"><text x="55.263671875" y="0" font-family="Virgil, Segoe UI Emoji" font-size="20px" fill="#1e1e1e" text-anchor="middle" style="white-space: pre;" direction="ltr" dominant-baseline="text-before-edge">Check Events</text></g><g transform="translate(292.4150390625 868.296875) rotate(0 88.3154296875 12.5)"><text x="88.3154296875" y="0" font-family="Virgil, Segoe UI Emoji" font-size="20px" fill="#1e1e1e" text-anchor="middle" style="white-space: pre;" direction="ltr" dominant-baseline="text-before-edge">Update Game Physics</text></g><g transform="translate(413.61328125 1008.296875) rotate(0 88.30078125 12.5)"><text x="88.30078125" y="0" font-family="Virgil, Segoe UI Emoji" font-size="20px" fill="#1e1e1e" text-anchor="middle" style="white-space: pre;" direction="ltr" dominant-baseline="text-before-edge">Draw Game Elements</text></g><g transform="translate(81.275390625 1171.6328125) rotate(0 60.263671875 12.5)"><text x="60.263671875" y="0" font-family="Virgil, Segoe UI Emoji" font-size="20px" fill="#1e1e1e" text-anchor="middle" style="white-space: pre;" direction="ltr" dominant-baseline="text-before-edge">Check Buckets</text></g><g transform="translate(316.7138671875 1313.1484375) rotate(0 64.1455078125 12.5)"><text x="64.1455078125" y="0" font-family="Virgil, Segoe UI Emoji" font-size="20px" fill="#1e1e1e" text-anchor="middle" style="white-space: pre;" direction="ltr" dominant-baseline="text-before-edge">Level Complete</text></g><g transform="translate(784.271484375 1398.37890625) rotate(0 80.810546875 12.5)"><text x="80.810546875" y="0" font-family="Virgil, Segoe UI Emoji" font-size="20px" fill="#1e1e1e" text-anchor="middle" style="white-space: pre;" direction="ltr" dominant-baseline="text-before-edge">Move to Next Level</text></g><g transform="translate(32.5517578125 1344.3515625) rotate(0 53.0419921875 12.5)"><text x="53.0419921875" y="0" font-family="Virgil, Segoe UI Emoji" font-size="20px" fill="#1e1e1e" text-anchor="middle" style="white-space: pre;" direction="ltr" dominant-baseline="text-before-edge">Update HUD</text></g><g transform="translate(825.0966796875 1538.37890625) rotate(0 39.9853515625 12.5)"><text x="39.9853515625" y="0" font-family="Virgil, Segoe UI Emoji" font-size="20px" fill="#1e1e1e" text-anchor="middle" style="white-space: pre;" direction="ltr" dominant-baseline="text-before-edge">EndGame</text></g><g transform="translate(811.478515625 1640.87890625) rotate(0 53.603515625 12.5)"><text x="53.603515625" y="0" font-family="Virgil, Segoe UI Emoji" font-size="20px" fill="#1e1e1e" text-anchor="middle" style="white-space: pre;" direction="ltr" dominant-baseline="text-before-edge">Exit Program</text></g><g transform="translate(620.0125307006836 198.296875) rotate(0 76.2754837244004 25.61528197951614)"><text x="75.9599380493164" y="0" font-family="Virgil, Segoe UI Emoji" font-size="20px" fill="black" text-anchor="middle" style="white-space: pre;" direction="ltr" dominant-baseline="text-before-edge">Load settings, </text><text x="75.9599380493164" y="25" font-family="Virgil, Segoe UI Emoji" font-size="20px" fill="black" text-anchor="middle" style="white-space: pre;" direction="ltr" dominant-baseline="text-before-edge">fonts, world</text></g><g transform="translate(637.73028125 453.296875) rotate(0 57.646599493101235 12.533245917037107)"><text x="58.2421875" y="0" font-family="Virgil, Segoe UI Emoji" font-size="20px" fill="black" text-anchor="middle" style="white-space: pre;" direction="ltr" dominant-baseline="text-before-edge">Timer Expired</text></g><g transform="translate(424.15567968749997 593.296875) rotate(0 137.066908713394 11.631648786511278)"><text x="77.7587890625" y="0" font-family="Virgil, Segoe UI Emoji" font-size="20px" fill="black" text-anchor="middle" style="white-space: pre;" direction="ltr" dominant-baseline="text-before-edge">Setup game objects</text></g><g transform="translate(562.82403125 938.296875) rotate(0 22.33084274535119 -39.193333466723516)"><text x="60.2734375" y="0" font-family="Virgil, Segoe UI Emoji" font-size="20px" fill="black" text-anchor="middle" style="white-space: pre;" direction="ltr" dominant-baseline="text-before-edge">Continue Loop</text></g><g transform="translate(165.60703497314455 969.58203125) rotate(0 67.61568268337655 64.48594506879147)"><text x="61.43993377685547" y="0" font-family="Virgil, Segoe UI Emoji" font-size="20px" fill="black" text-anchor="middle" style="white-space: pre;" direction="ltr" dominant-baseline="text-before-edge">Physics Step</text></g><g transform="translate(254.00270477294924 1218.17578125) rotate(0 67.31297508866047 16.982623326562702)"><text x="59.12995147705078" y="0" font-family="Virgil, Segoe UI Emoji" font-size="20px" fill="black" text-anchor="middle" style="white-space: pre;" direction="ltr" dominant-baseline="text-before-edge">All Exploded</text></g><g transform="translate(542.8302164203701 1364.3754699344604) rotate(0 68.47269974298777 13.376955466642812)"><text x="68.7899398803711" y="0" font-family="Virgil, Segoe UI Emoji" font-size="20px" fill="black" text-anchor="middle" style="white-space: pre;" direction="ltr" dominant-baseline="text-before-edge">Show Message</text></g><g transform="translate(59.78773541259761 1261.26171875) rotate(0 50.66320413728063 10.344791258991108)"><text x="49.239952087402344" y="0" font-family="Virgil, Segoe UI Emoji" font-size="20px" fill="black" text-anchor="middle" style="white-space: pre;" direction="ltr" dominant-baseline="text-before-edge">Still Filling</text></g><g transform="translate(1219.1843003540039 989.21484375) rotate(0 -190.20576582124045 -22.01095224861797)"><text x="71.5499496459961" y="0" font-family="Virgil, Segoe UI Emoji" font-size="20px" fill="black" text-anchor="middle" style="white-space: pre;" direction="ltr" dominant-baseline="text-before-edge">Load new level</text></g><g transform="translate(803.98878125 1468.37890625) rotate(0 61.164727506730685 12.597912619635508)"><text x="61.09375" y="0" font-family="Virgil, Segoe UI Emoji" font-size="20px" fill="black" text-anchor="middle" style="white-space: pre;" direction="ltr" dominant-baseline="text-before-edge">No more levels</text></g><g transform="translate(87.3515625 10) rotate(0 237.6779022216797 52.5)"><text x="0" y="0" font-family="Virgil, Segoe UI Emoji" font-size="28px" fill="#1e1e1e" text-anchor="start" style="white-space: pre;" direction="ltr" dominant-baseline="text-before-edge">SugarPop Application Flow Diagram</text><text x="0" y="35" font-family="Virgil, Segoe UI Emoji" font-size="28px" fill="#1e1e1e" text-anchor="start" style="white-space: pre;" direction="ltr" dominant-baseline="text-before-edge">Nov 18, 2024</text><text x="0" y="70" font-family="Virgil, Segoe UI Emoji" font-size="28px" fill="#1e1e1e" text-anchor="start" style="white-space: pre;" direction="ltr" dominant-baseline="text-before-edge">(c)2024</text></g></svg>